<svg width="19" height="20" viewBox="0 0 19 20" xmlns="http://www.w3.org/2000/svg">
    <path fill="white" d="M18.6247 12.7354L17.8136 12.0741C17.3218 11.6707 17.0513 11.0617 17.0836 10.4309C17.0836 10.2906 17.0836 10.1403 17.0836 10C17.0836 9.85972 17.0836 9.70942 17.0836 9.56914C17.0513 8.9383 17.3218 8.32932 17.8136 7.92587L18.6247 7.26455C19.0095 6.95612 19.1124 6.41797 18.868 5.99202L17.6919 3.98803C17.4427 3.56962 16.9257 3.38806 16.4652 3.55717L15.4513 3.91789C14.853 4.13888 14.1843 4.06834 13.6467 3.72751C13.4083 3.56478 13.1575 3.42072 12.8964 3.29665C12.3259 3.0075 11.9274 2.46873 11.8217 1.84376L11.6494 0.84176C11.569 0.351727 11.1378 -0.00630458 10.6355 8.41592e-05H8.30365C7.8014 -0.00630458 7.37013 0.351727 7.2898 0.84176L7.11745 1.84376C7.02061 2.46084 6.63824 2.99804 6.08332 3.29665C5.82225 3.42072 5.5714 3.56478 5.33307 3.72751C4.79543 4.06834 4.12672 4.13888 3.52841 3.91789L2.51455 3.55717C2.05989 3.39911 1.55549 3.57925 1.30807 3.98803L0.132 5.99202C-0.112414 6.41797 -0.00951343 6.95612 0.375325 7.26455L1.18641 7.92587C1.67818 8.32932 1.9487 8.9383 1.91638 9.56914C1.91638 9.70942 1.91638 9.85972 1.91638 10C1.91638 10.1403 1.91638 10.2906 1.91638 10.4309C1.9487 11.0617 1.67818 11.6707 1.18641 12.0741L0.375325 12.7354C-0.00951343 13.0439 -0.112414 13.582 0.132 14.008L1.30807 16.012C1.55735 16.4304 2.0743 16.6119 2.53483 16.4428L3.54868 16.0821C4.147 15.8611 4.81571 15.9317 5.35334 16.2725C5.59168 16.4352 5.84253 16.5793 6.10359 16.7034C6.67409 16.9925 7.07261 17.5313 7.17828 18.1562L7.35063 19.1582C7.43096 19.6483 7.86223 20.0063 8.36448 19.9999H10.6963C11.1986 20.0063 11.6299 19.6483 11.7102 19.1582L11.8826 18.1562C11.9882 17.5313 12.3867 16.9925 12.9572 16.7034C13.2183 16.5793 13.4692 16.4352 13.7075 16.2725C14.2451 15.9317 14.9138 15.8611 15.5121 16.0821L16.526 16.4428C16.9686 16.5797 17.4487 16.4022 17.6919 16.012L18.868 14.008C19.1124 13.582 19.0095 13.0439 18.6247 12.7354ZM9.5 13.006C7.82019 13.006 6.45844 11.6602 6.45844 10C6.45844 8.33984 7.82019 6.99401 9.5 6.99401C11.1798 6.99401 12.5416 8.33984 12.5416 10C12.5416 10.7972 12.2211 11.5618 11.6507 12.1256C11.0803 12.6893 10.3067 13.006 9.5 13.006Z"/>
</svg>
