<svg width="23" height="21" viewBox="0 0 23 21" xmlns="http://www.w3.org/2000/svg">
    <path d="M12.7912 1.3125V19.6875C12.7912 20.4124 12.2185 21 11.5121 21H10.7574C10.4218 20.9986 10.1003 20.8619 9.86202 20.6194L4.96299 15.5925C4.24403 14.8539 3.26864 14.4384 2.25125 14.4375C1.00792 14.4375 0 13.4033 0 12.1275V8.8725C0 7.59672 1.00792 6.5625 2.25125 6.5625C3.26864 6.56158 4.24403 6.14614 4.96299 5.4075L9.86202 0.380625C10.1003 0.138148 10.4218 0.00144981 10.7574 0H11.5121C12.2185 0 12.7912 0.587626 12.7912 1.3125ZM20.4659 3.58313C20.3429 3.45533 20.1798 3.3763 20.0054 3.36C19.8279 3.35535 19.6564 3.42666 19.5322 3.55687L18.624 4.48875C18.3965 4.74046 18.3965 5.12954 18.624 5.38125C21.0806 8.32826 21.0806 12.6717 18.624 15.6187C18.3965 15.8705 18.3965 16.2595 18.624 16.5112L19.5322 17.4431C19.6564 17.5733 19.8279 17.6447 20.0054 17.64C20.1804 17.626 20.3442 17.5466 20.4659 17.4169C23.8447 13.4573 23.8447 7.54273 20.4659 3.58313ZM16.4239 7.0875C16.2384 7.08026 16.058 7.15142 15.9251 7.28438L15.0169 8.22938C14.7988 8.4479 14.7613 8.79394 14.9273 9.05625C15.4896 9.9323 15.4896 11.0677 14.9273 11.9438C14.7613 12.2061 14.7988 12.5521 15.0169 12.7706L15.9251 13.7156C16.0593 13.8451 16.24 13.9117 16.4239 13.8994C16.6086 13.8874 16.7801 13.7971 16.8972 13.65C18.2616 11.7833 18.2616 9.21667 16.8972 7.35C16.7778 7.20379 16.6085 7.10989 16.4239 7.0875Z" fill="white"/>
</svg>
