<svg width="23" height="21" viewBox="0 0 23 21" xmlns="http://www.w3.org/2000/svg">
    <path fill="#fff" d="m22.55,12.88c.6.6.6,1.57,0,2.17-.6.6-1.57.6-2.17,0l-2.38-2.38-2.38,2.38c-.6.6-1.57.6-2.17,0-.6-.6-.6-1.57,0-2.17l2.38-2.38-2.38-2.38c-.6-.6-.6-1.57,0-2.17.6-.6,1.57-.6,2.17,0l2.38,2.38,2.38-2.38c.6-.6,1.57-.6,2.17,0,.6.6.6,1.57,0,2.17l-2.38,2.38,2.38,2.38ZM11.51,0h-.75c-.34,0-.66.14-.9.38l-4.9,5.03c-.72.74-1.69,1.15-2.71,1.16-1.24,0-2.25,1.03-2.25,2.31v3.25c0,1.28,1.01,2.31,2.25,2.31,1.02,0,1.99.42,2.71,1.15l4.9,5.03c.24.24.56.38.9.38h.75c.71,0,1.28-.59,1.28-1.31V1.31c0-.72-.57-1.31-1.28-1.31Z"/>
</svg>
